<svg id="Group_110" data-name="Group 110" xmlns="http://www.w3.org/2000/svg" width="72.212" height="67.545" viewBox="0 0 72.212 67.545">
  <path id="Path_158" data-name="Path 158" d="M14.81,13.488V67.424h3.614v-56.4Z" fill="#e64d00"/>
  <path id="Path_159" data-name="Path 159" d="M4.87,20.512V67.428H8.486V17.864Z" fill="#e64d00"/>
  <path id="Path_160" data-name="Path 160" d="M0,23.921v43.5H3.514V21.461Z" fill="#e64d00"/>
  <path id="Path_161" data-name="Path 161" d="M9.84,16.958V67.422h3.614V14.5Z" fill="#e64d00"/>
  <path id="Path_162" data-name="Path 162" d="M29.722,3V67.424h4.146V.1Z" fill="#e64d00"/>
  <path id="Path_163" data-name="Path 163" d="M24.75,6.593V67.424h3.614V3.848Z" fill="#e64d00"/>
  <path id="Path_164" data-name="Path 164" d="M19.781,10.138V67.426h3.612V7.377Z" fill="#e64d00"/>
  <path id="Path_165" data-name="Path 165" d="M33.881,0V3.171L71.939,25.209l.273-2.259Z" fill="#e64d00"/>
  <path id="Path_166" data-name="Path 166" d="M70.061,23.339V67.545h2.128V22.955Z" fill="#e64d00"/>
  <path id="Path_167" data-name="Path 167" d="M33.549,20.65l38.058,17.6L71.88,36,33.549,17.479Z" fill="#e64d00"/>
  <path id="Path_168" data-name="Path 168" d="M33.549,17.922l10.88-9.991,2.128,1.125-10.88,9.99Z" fill="#e64d00"/>
  <rect id="Rectangle_13453" data-name="Rectangle 13453" width="2.478" height="14.928" transform="translate(51.476 12.605)" fill="#e64d00"/>
  <rect id="Rectangle_13454" data-name="Rectangle 13454" width="2.477" height="17.736" transform="translate(43.849 10.033) rotate(-21.054)" fill="#e64d00"/>
  <path id="Path_169" data-name="Path 169" d="M52.76,28.951l-1.975-1.5,9.29-10.494,1.975,1.5Z" fill="#e64d00"/>
  <path id="Path_170" data-name="Path 170" d="M61.192,18.663l7.344,18.06,2.59-.7L63.782,17.961Z" fill="#e64d00"/>
  <rect id="Rectangle_13455" data-name="Rectangle 13455" width="71.879" height="3.141" transform="translate(0 64.284)" fill="#e64d00"/>
</svg>
