<svg xmlns="http://www.w3.org/2000/svg" width="26.763" height="52.729" viewBox="0 0 26.763 52.729">
  <g id="Group_297" data-name="Group 297" transform="translate(1.021 1)">
    <line id="Line_94" data-name="Line 94" y1="6.143" transform="translate(12.286 0)" fill="none" stroke="#ec6500" stroke-linecap="round" stroke-linejoin="round" stroke-width="2"/>
    <path id="Path_406" data-name="Path 406" d="M1652.085,1100l6.154,31.7a2.122,2.122,0,0,1-1.539,2.377l-1.6.431" transform="translate(-1633.545 -1087.457)" fill="none" stroke="#ec6500" stroke-linecap="round" stroke-linejoin="round" stroke-width="2"/>
    <line id="Line_95" data-name="Line 95" x2="3.413" transform="translate(2.731 50.505)" fill="none" stroke="#ec6500" stroke-linecap="round" stroke-linejoin="round" stroke-width="2"/>
    <line id="Line_96" data-name="Line 96" x2="3.413" transform="translate(10.921 50.505)" fill="none" stroke="#ec6500" stroke-linecap="round" stroke-linejoin="round" stroke-width="2"/>
    <line id="Line_97" data-name="Line 97" x2="3.413" transform="translate(18.429 50.505)" fill="none" stroke="#ec6500" stroke-linecap="round" stroke-linejoin="round" stroke-width="2"/>
    <g id="Group_296" data-name="Group 296" transform="translate(0.001 6.364)">
      <line id="Line_98" data-name="Line 98" x1="3.071" y2="11.522" transform="translate(2.245 32.62)" fill="none" stroke="#ec6500" stroke-linecap="round" stroke-linejoin="round" stroke-width="2"/>
      <g id="Group_295" data-name="Group 295" transform="translate(5.316)">
        <path id="Path_407" data-name="Path 407" d="M1620.072,1127.035a6.009,6.009,0,0,1-3.172,0" transform="translate(-1611.442 -1114.888)" fill="none" stroke="#ec6500" stroke-linecap="round" stroke-linejoin="round" stroke-width="2"/>
        <path id="Path_408" data-name="Path 408" d="M1603.85,1084.147a6.18,6.18,0,1,0-3.172,0" transform="translate(-1595.221 -1072)" fill="none" stroke="#ec6500" stroke-linecap="round" stroke-linejoin="round" stroke-width="2"/>
        <line id="Line_99" data-name="Line 99" x1="8.529" y1="31.995" transform="translate(8.629 12.147)" fill="none" stroke="#ec6500" stroke-linecap="round" stroke-linejoin="round" stroke-width="2"/>
        <line id="Line_100" data-name="Line 100" x1="5.458" y2="20.473" transform="translate(0 12.147)" fill="none" stroke="#ec6500" stroke-linecap="round" stroke-linejoin="round" stroke-width="2"/>
      </g>
      <line id="Line_101" data-name="Line 101" y1="25.028" x2="4.886" transform="translate(1.294 6.18)" fill="none" stroke="#ec6500" stroke-linecap="round" stroke-linejoin="round" stroke-width="2"/>
      <path id="Path_409" data-name="Path 409" d="M1569.379,1213.4l-1.268,6.676a2.122,2.122,0,0,0,1.539,2.377l1.6.431" transform="translate(-1568.085 -1182.192)" fill="none" stroke="#ec6500" stroke-linecap="round" stroke-linejoin="round" stroke-width="2"/>
    </g>
  </g>
</svg>
