<svg xmlns="http://www.w3.org/2000/svg" width="75.348" height="61.638" viewBox="0 0 75.348 61.638">
  <path id="Path_118" data-name="Path 118" d="M0,58.59v3.047H18.749V49.918Zm0-3.75v2.345l18.749-8.671V46.17Zm0-3.749v2.344l18.749-8.672V42.419Zm0-3.749v2.343l18.749-8.671V38.67Zm0-3.749v2.343l18.749-8.672V34.92Zm8.306-7.556V38.38l10.443-4.867V31.17Zm0-3.749V34.63l10.443-4.866V27.421Zm0-3.749V30.88l10.443-4.866V23.671ZM20.389,11.665V61.638h2.578v-51.2Zm3.75-1.782V61.638h2.578V8.657ZM27.889,8.1V61.638h2.578V6.875Zm3.75-1.784V61.638h2.578V5.091Zm3.75-1.782v57.1h2.577V3.308Zm3.749-1.782V61.638h2.578V1.526ZM44.925,0,42.889.969V61.638h4.639V38.018L53.9,34.189l.033,27.449h4.374V24.309l6.372-3.829.033,41.158H75.348l-.469-1.575V32.928L64.692,20.5V12.818L45.466,0Z" fill="#ec6500"/>
</svg>
