<svg xmlns="http://www.w3.org/2000/svg" width="42.426" height="38.36" viewBox="0 0 42.426 38.36">
  <g id="Group_294" data-name="Group 294" transform="translate(1 1)">
    <path id="Rectangle_13507" data-name="Rectangle 13507" d="M7.969,0H32.458a7.968,7.968,0,0,1,7.968,7.968V27.047a7.968,7.968,0,0,1-7.968,7.968H7.969A7.969,7.969,0,0,1,0,27.047V7.969A7.969,7.969,0,0,1,7.969,0Z" transform="translate(0 1.344)" fill="none" stroke="#ec6500" stroke-linecap="round" stroke-linejoin="round" stroke-width="2"/>
    <line id="Line_84" data-name="Line 84" x1="40.426" transform="translate(0 8.909)" fill="none" stroke="#ec6500" stroke-linecap="round" stroke-linejoin="round" stroke-width="2"/>
    <line id="Line_85" data-name="Line 85" y1="3.698" transform="translate(30.82 0)" fill="none" stroke="#ec6500" stroke-linecap="round" stroke-linejoin="round" stroke-width="2"/>
    <line id="Line_86" data-name="Line 86" y1="3.698" transform="translate(9.328 0)" fill="none" stroke="#ec6500" stroke-linecap="round" stroke-linejoin="round" stroke-width="2"/>
    <line id="Line_87" data-name="Line 87" x2="30.597" transform="translate(4.982 16.566)" fill="none" stroke="#ec6500" stroke-linecap="round" stroke-linejoin="round" stroke-width="2"/>
    <line id="Line_88" data-name="Line 88" x2="30.597" transform="translate(4.982 22.626)" fill="none" stroke="#ec6500" stroke-linecap="round" stroke-linejoin="round" stroke-width="2"/>
    <line id="Line_89" data-name="Line 89" x2="30.597" transform="translate(4.982 28.686)" fill="none" stroke="#ec6500" stroke-linecap="round" stroke-linejoin="round" stroke-width="2"/>
    <line id="Line_90" data-name="Line 90" y2="18.18" transform="translate(8.06 13.536)" fill="none" stroke="#ec6500" stroke-linecap="round" stroke-linejoin="round" stroke-width="2"/>
    <line id="Line_91" data-name="Line 91" y2="18.18" transform="translate(16.324 13.536)" fill="none" stroke="#ec6500" stroke-linecap="round" stroke-linejoin="round" stroke-width="2"/>
    <line id="Line_92" data-name="Line 92" y2="18.18" transform="translate(24.588 13.536)" fill="none" stroke="#ec6500" stroke-linecap="round" stroke-linejoin="round" stroke-width="2"/>
    <line id="Line_93" data-name="Line 93" y2="18.18" transform="translate(32.851 13.536)" fill="none" stroke="#ec6500" stroke-linecap="round" stroke-linejoin="round" stroke-width="2"/>
  </g>
</svg>
