<svg id="Group_280" data-name="Group 280" xmlns="http://www.w3.org/2000/svg" xmlns:xlink="http://www.w3.org/1999/xlink" width="30.208" height="46.414" viewBox="0 0 30.208 46.414">
  <defs>
    <clipPath id="clip-path">
      <rect id="Rectangle_13482" data-name="Rectangle 13482" width="30.208" height="46.414" fill="#ec6500"/>
    </clipPath>
  </defs>
  <g id="Group_192" data-name="Group 192" transform="translate(0 0)" clip-path="url(#clip-path)">
    <path id="Path_272" data-name="Path 272" d="M30.208,1203.334c0,.764-.517,1.438-1.536,2a13.131,13.131,0,0,1-3.271,1.143,47.343,47.343,0,0,1-10.3,1,47.342,47.342,0,0,1-10.3-1,13.131,13.131,0,0,1-3.271-1.143c-1.02-.564-1.537-1.238-1.537-2a2.3,2.3,0,0,1,1.358-1.9,11.268,11.268,0,0,1,2.875-1.1,35.483,35.483,0,0,1,5.6-.911.792.792,0,0,1,.777.426l.008.016a.791.791,0,0,1-.63,1.149,33.813,33.813,0,0,0-5.349.867,9.9,9.9,0,0,0-2.457.927c-.539.324-.583.527-.583.529s.053.239.712.6a11.793,11.793,0,0,0,2.861.985,45.754,45.754,0,0,0,9.933.959,45.757,45.757,0,0,0,9.933-.959,11.784,11.784,0,0,0,2.861-.985c.659-.364.712-.6.712-.6s-.043-.205-.582-.529a9.9,9.9,0,0,0-2.457-.927,33.84,33.84,0,0,0-5.349-.868.791.791,0,0,1-.63-1.149l.008-.016a.792.792,0,0,1,.777-.426,35.483,35.483,0,0,1,5.6.911,11.266,11.266,0,0,1,2.875,1.1,2.3,2.3,0,0,1,1.358,1.9" transform="translate(0 -1161.066)" fill="#ec6500"/>
    <path id="Path_273" data-name="Path 273" d="M195.021,162.066a9.162,9.162,0,1,1,6.478-2.683,9.1,9.1,0,0,1-6.478,2.683m0-16.724a7.563,7.563,0,1,0,7.563,7.563,7.571,7.571,0,0,0-7.563-7.563" transform="translate(-179.916 -139.147)" fill="#ec6500"/>
    <path id="Path_274" data-name="Path 274" d="M55.869,43.071a.8.8,0,0,1-.71-.432c-.084-.162-8.4-16.257-11-21.679a18.307,18.307,0,0,1-2.044-7.2,13.758,13.758,0,0,1,27.515,0,18.307,18.307,0,0,1-2.044,7.2c-2.6,5.422-10.92,21.517-11,21.679a.8.8,0,0,1-.71.432m0-41.47A12.173,12.173,0,0,0,43.71,13.759,16.857,16.857,0,0,0,45.6,20.268c2.143,4.466,8.195,16.23,10.273,20.26C57.947,36.5,64,24.734,66.141,20.268a16.857,16.857,0,0,0,1.886-6.509A12.173,12.173,0,0,0,55.869,1.6" transform="translate(-40.765 -0.002)" fill="#ec6500"/>
  </g>
</svg>
