<svg xmlns="http://www.w3.org/2000/svg" xmlns:xlink="http://www.w3.org/1999/xlink" width="42.804" height="42.353" viewBox="0 0 42.804 42.353">
  <defs>
    <clipPath id="clip-path">
      <rect id="Rectangle_13506" data-name="Rectangle 13506" width="42.804" height="42.353" fill="#ec6500"/>
    </clipPath>
  </defs>
  <g id="Group_292" data-name="Group 292" transform="translate(0 0)">
    <g id="Group_291" data-name="Group 291" transform="translate(0 0)" clip-path="url(#clip-path)">
      <path id="Path_399" data-name="Path 399" d="M14.889,158.365H1.579v-4.194H11.9a.79.79,0,1,0,0-1.579H4.17v-4.2h7.821a.79.79,0,1,0,0-1.579H3.38a.791.791,0,0,0-.79.79v4.988H.79a.791.791,0,0,0-.79.79v5.773a.791.791,0,0,0,.79.79h14.1a.79.79,0,1,0,0-1.579" transform="translate(0 -117.592)" fill="#ec6500"/>
      <path id="Path_400" data-name="Path 400" d="M134.579,101.912a.79.79,0,0,0,.79-.79V95.345a.79.79,0,0,0-.79-.79h-.5V89.572a.79.79,0,0,0-.79-.79H116.357a.791.791,0,0,0-.79.79v2.063a.79.79,0,0,0,1.579,0V90.361H132.5v4.194h-6.82a.79.79,0,0,0,0,1.579h8.113v4.2h-4.836a.79.79,0,0,0,0,1.579H131v4.2h-1.953a.79.79,0,1,0,0,1.579h4.741v4.194h-7.734a.79.79,0,1,0,0,1.579h8.524a.79.79,0,0,0,.79-.79V106.9a.79.79,0,0,0-.79-.79h-2v-4.2Z" transform="translate(-92.564 -71.11)" fill="#ec6500"/>
      <path id="Path_401" data-name="Path 401" d="M84.3,119.8a9.254,9.254,0,1,0,9.254,9.254A9.264,9.264,0,0,0,84.3,119.8m7.675,9.254a7.675,7.675,0,1,1-7.675-7.675,7.683,7.683,0,0,1,7.675,7.675" transform="translate(-60.109 -95.954)" fill="#ec6500"/>
      <path id="Path_402" data-name="Path 402" d="M110.214,145.026A1.235,1.235,0,1,1,111.3,143.2a.79.79,0,1,0,1.384-.761,2.815,2.815,0,1,0-2.467,4.17,1.235,1.235,0,1,1-1.083,1.83.79.79,0,1,0-1.384.761,2.815,2.815,0,1,0,2.467-4.17" transform="translate(-86.022 -112.916)" fill="#ec6500"/>
      <path id="Path_403" data-name="Path 403" d="M1.245,14.988a1.58,1.58,0,0,0,1.091-.132L7.35,18.23a1.611,1.611,0,0,0,1.23,1.789,1.639,1.639,0,0,0,.369.043,1.611,1.611,0,0,0,1.527-2.119l7.311-11.1a1.6,1.6,0,0,0,.97-.2l6.691,3.971a1.612,1.612,0,0,0,3.161.548l.016-.061a1.6,1.6,0,0,0,0-.726L36.32,3.149c.038.012.075.023.114.033a1.612,1.612,0,0,0,1.938-1.2,1.613,1.613,0,0,0-1.2-1.939A1.612,1.612,0,0,0,35.237,2L27.565,9.207c-.047-.016-.094-.03-.143-.041a1.605,1.605,0,0,0-1.1.134L19.57,5.291a1.615,1.615,0,0,0-1.244-1.616A1.61,1.61,0,0,0,16.5,5.931L9.29,16.874a1.593,1.593,0,0,0-.983.1L3.219,13.548a1.612,1.612,0,1,0-1.974,1.441" transform="translate(0 0)" fill="#ec6500"/>
    </g>
  </g>
</svg>
