<svg xmlns="http://www.w3.org/2000/svg" width="84.222" height="61.639" viewBox="0 0 84.222 61.639">
  <path id="Path_120" data-name="Path 120" d="M0,58.71v2.929H3.03V58.608Zm3.732-.124v3.053h3.3V58.475ZM77.19,61.639h3.3V58.586l-3.3-.11ZM7.8,58.448v3.19h3.6V58.33Zm65.024,3.19h3.6v-3.19l-3.6-.119ZM12.237,58.3v3.338h3.954v-3.47ZM68.03,61.639h3.953V58.3l-3.953-.132Zm-50.918-3.5v3.5h4.356V57.993Zm45.641,3.5h4.357v-3.5l-4.357-.146ZM22.486,57.96v3.679H27.31V57.8ZM56.91,61.639h4.824V57.96L56.91,57.8ZM28.44,57.76v3.879h5.372V57.581Zm21.97,3.879H55.78V57.76l-5.371-.179Zm-15.336-4.1v4.1h6.019v-4.3Zm8.056,4.1h6.018v-4.1l-6.018-.2ZM0,54.8v2.928L3.03,57.6V54.568ZM81.19,57.6l3.032.134V54.8l-3.032-.237ZM7.8,54.2v3.19l3.6-.161V53.917Zm65.024,3.03,3.6.161V54.2l-3.6-.279ZM12.237,53.851v3.337l3.954-.175v-3.47ZM68.03,57.013l3.953.175V53.851l-3.953-.308ZM17.112,53.472v3.5l4.356-.193V53.133Zm5.374-.419v3.68l4.824-.215v-3.84ZM56.91,56.518l4.824.215v-3.68l-4.824-.375ZM28.44,52.59v3.877l5.372-.238V52.171Zm21.97,3.639,5.371.238V52.59l-5.371-.419ZM35.073,52.073v4.1l6.019-.267V51.6Zm8.056,3.832,6.018.267v-4.1L43.129,51.6ZM81.19,53.558l3.032.269V50.9l-3.032-.372ZM3.732,50.442V53.5l3.3-.294V50.038ZM77.19,53.2l3.3.294V50.442l-3.3-.4ZM7.8,49.944v3.189l3.6-.319V49.5Zm65.024,2.87,3.6.319V49.944l-3.6-.44Zm-4.791-.427,3.953.351V49.4l-3.953-.484ZM17.112,48.8v3.5l4.356-.388V48.271Zm45.641,3.113,4.357.388V48.8l-4.357-.533Zm-40.266-3.77v3.68L27.31,51.4V47.556ZM56.91,51.4l4.824.429v-3.68l-4.824-.591ZM28.44,47.418V51.3l5.372-.478V46.761ZM0,46.992v2.929l3.03-.405v-3.03Zm35.073-.385v4.1l6.019-.535v-4.3Zm8.056,3.563,6.018.535v-4.1l-6.018-.736Zm-39.4-3.8v3.054l3.3-.44V45.82ZM77.19,48.983l3.3.44V46.37l-3.3-.55ZM7.8,45.691V48.88l3.6-.48V45.091ZM72.821,48.4l3.6.48V45.691l-3.6-.6ZM12.237,44.95v3.339l3.954-.528V44.29Zm4.875-.812v3.5l4.356-.582V43.411Zm45.641,2.918,4.357.582v-3.5l-4.357-.727ZM22.486,43.241V46.92l4.824-.644v-3.84ZM56.91,46.276l4.824.644V43.241l-4.824-.805ZM3.732,42.3v3.054l3.3-.587V41.6ZM77.19,44.765l3.3.587V42.3l-3.3-.7ZM28.44,42.248v3.877l5.372-.717V41.352ZM7.8,41.439v3.189l3.6-.641V40.678Zm65.024,2.548,3.6.641V41.439l-3.6-.761ZM35.073,41.141v4.1l6.019-.8v-4.3Zm8.056,3.3,6.018.8v-4.1l-6.018-1ZM12.237,40.5v3.337l3.954-.7v-3.47ZM68.03,43.135l3.953.7V40.5l-3.953-.836ZM17.112,39.47v3.5l4.356-.775V38.55ZM62.752,42.2l4.357.775v-3.5l-4.357-.921Zm18.438-.76,3.032.674V39.181l-3.032-.775ZM3.732,38.227V41.28l3.3-.734V37.382ZM77.19,40.546l3.3.734V38.227l-3.3-.844Zm-54.7-2.211v3.68l4.824-.859v-3.84ZM56.91,41.156l4.824.859v-3.68l-4.824-1.02ZM28.44,37.077v3.879L33.811,40V35.941ZM50.409,40l5.371.956V37.077l-5.371-1.135ZM12.237,36.05v3.337l3.954-.879v-3.47ZM68.03,38.508l3.953.879V36.05L68.03,35.039ZM35.073,35.674v4.1L41.091,38.7V34.4ZM43.129,38.7l6.018,1.071v-4.1L43.129,34.4ZM81.19,37.4l3.032.81v-2.93l-3.032-.91ZM17.112,34.8v3.5l4.356-.969V33.689Zm5.374-1.374v3.679l4.824-1.072V32.194ZM56.91,36.035l4.824,1.072V33.428L56.91,32.194ZM7.8,32.935v3.188l3.6-.962V31.852Zm65.024,2.227,3.6.962V32.935l-3.6-1.083ZM28.44,31.906v3.877l5.372-1.2V30.531Zm21.97,2.682,5.371,1.2V31.906l-5.371-1.375ZM12.237,31.6v3.337l3.954-1.056v-3.47ZM68.03,33.882l3.953,1.056V31.6L68.03,30.412Zm-64.3-3.8v3.054l3.3-1.027V28.945ZM77.19,32.109l3.3,1.027V30.083l-3.3-1.138Zm-14.437.365,4.357,1.163v-3.5l-4.357-1.308ZM35.073,30.208v4.1l6.019-1.339v-4.3Zm8.056,2.762,6.018,1.339v-4.1l-6.018-1.538ZM7.8,28.68v3.19l3.6-1.122V27.439Zm65.024,2.068,3.6,1.122V28.68l-3.6-1.241ZM22.486,28.522V32.2l4.824-1.288v-3.84ZM56.91,30.913,61.734,32.2V28.522L56.91,27.074Zm24.28-1.6,3.032,1.079v-2.93L81.19,26.284ZM12.237,27.15v3.338l3.954-1.231v-3.47ZM68.03,29.256l3.953,1.231V27.15L68.03,25.787ZM28.44,26.734v3.879l5.372-1.434V25.122Zm21.97,2.444,5.371,1.434V26.734l-5.371-1.612ZM77.19,27.891l3.3,1.173V26.011l-3.3-1.284ZM17.112,25.469v3.5l4.356-1.357V23.966ZM7.8,24.428v3.189l3.6-1.282v-3.31Zm65.024,1.908,3.6,1.282V24.428l-3.6-1.4ZM35.073,24.743v4.1l6.019-1.606v-4.3Zm8.056,2.493,6.018,1.606v-4.1l-6.018-1.808ZM56.91,25.794l4.824,1.5v-3.68L56.91,21.953ZM68.03,24.63l3.953,1.407V22.7L68.03,21.161Zm-64.3-2.692v3.054l3.3-1.321V20.508Zm24.707-.376v3.878l5.372-1.673V19.712ZM17.112,20.8v3.5l4.356-1.551V19.106Zm45.641,1.949L67.109,24.3V20.8l-4.357-1.7Zm10.069-.829,3.6,1.443v-3.19l-3.6-1.563ZM35.073,19.277v4.1L41.091,21.5V17.2ZM43.129,21.5l6.018,1.875v-4.1L43.129,17.2ZM22.486,18.71v3.679l4.824-1.716v-3.84ZM56.91,20.673l4.824,1.716V18.71L56.91,16.832ZM12.237,18.249v3.337L16.192,20v-3.47ZM68.03,20l3.953,1.583V18.249L68.03,16.534ZM28.44,16.392v3.877l5.372-1.911V14.3Zm21.97,1.967,5.371,1.911V16.392L50.409,14.3Zm-33.3-2.223v3.5l4.356-1.744V14.245ZM12.237,13.8v3.338l3.954-1.759v-3.47ZM68.03,15.378l3.953,1.759V13.8L68.03,11.908ZM22.486,13.8v3.68l4.824-1.931V11.711ZM56.91,15.552l4.824,1.931V13.8L56.91,11.711ZM35.073,13.81v4.1l6.019-2.142v-4.3Zm8.056,1.958,6.018,2.142v-4.1l-6.018-2.342Zm7.28-2.819L55.78,15.1V11.221L50.409,8.892Zm6.5-2.518,4.824,2.147V8.9L56.91,6.59ZM35.073,8.344v4.1l6.019-2.408v-4.3Zm8.056,1.691,6.018,2.408v-4.1L43.129,5.733ZM28.44,6.05V9.929l5.372-2.39V3.481ZM41.091,0,35.073,2.878v4.1L41.091,4.3Zm2.037,0V4.3l6.018,2.677v-4.1Z" fill="#ec6500"/>
</svg>
