<?xml version="1.0" encoding="utf-8"?>
<!-- Generator: Adobe Illustrator 28.0.0, SVG Export Plug-In . SVG Version: 6.00 Build 0)  -->
<svg version="1.1" id="Group_110" xmlns="http://www.w3.org/2000/svg" xmlns:xlink="http://www.w3.org/1999/xlink" x="0px" y="0px"
	 viewBox="0 0 72.2 67.5" style="enable-background:new 0 0 72.2 67.5;" xml:space="preserve">
<style type="text/css">
	.st0{fill:#EC6500;}
</style>
<path id="Path_158" class="st0" d="M14.8,13.5v53.9h3.6V11L14.8,13.5z"/>
<path id="Path_159" class="st0" d="M4.9,20.5v46.9h3.6V17.9L4.9,20.5z"/>
<path id="Path_160" class="st0" d="M0,23.9v43.5h3.5v-46L0,23.9z"/>
<path id="Path_161" class="st0" d="M9.8,17v50.5h3.6V14.5L9.8,17z"/>
<path id="Path_162" class="st0" d="M29.7,3v64.4h4.1V0.1L29.7,3z"/>
<path id="Path_163" class="st0" d="M24.8,6.6v60.8h3.6V3.8L24.8,6.6z"/>
<path id="Path_164" class="st0" d="M19.8,10.1v57.3h3.6v-60L19.8,10.1z"/>
<path id="Path_165" class="st0" d="M33.9,0v3.2l38.1,22l0.3-2.3L33.9,0z"/>
<path id="Path_166" class="st0" d="M70.1,23.3v44.2h2.1V23L70.1,23.3z"/>
<path id="Path_167" class="st0" d="M33.5,20.6l38.1,17.6l0.3-2.2L33.5,17.5V20.6z"/>
<path id="Path_168" class="st0" d="M33.5,17.9l10.9-10l2.1,1.1L35.7,19L33.5,17.9z"/>
<rect id="Rectangle_13453" x="51.5" y="12.6" class="st0" width="2.5" height="14.9"/>
<rect id="Rectangle_13454" x="47" y="9" transform="matrix(0.9332 -0.3592 0.3592 0.9332 -3.2005 18.5049)" class="st0" width="2.5" height="17.7"/>
<path id="Path_169" class="st0" d="M52.8,29l-2-1.5L60.1,17l2,1.5L52.8,29z"/>
<path id="Path_170" class="st0" d="M61.2,18.7l7.3,18.1l2.6-0.7L63.8,18L61.2,18.7z"/>
<rect id="Rectangle_13455" y="64.3" class="st0" width="71.9" height="3.1"/>
</svg>
