<svg xmlns="http://www.w3.org/2000/svg" width="66.169" height="73.322" viewBox="0 0 66.169 73.322">
  <g id="Group_106" data-name="Group 106" transform="translate(0 0)">
    <path id="Path_127" data-name="Path 127" d="M26.328,0,14.75,9.788v4.142L26.328,5.27,46.281,20.425l.095-3.765Z" transform="translate(-3.926)" fill="#ec6500"/>
    <path id="Path_128" data-name="Path 128" d="M14.75,21.873v4.142l11.578-7.876L70,47.192l.094-2.59L26.328,12.868Z" transform="translate(-3.926 -3.425)" fill="#ec6500"/>
    <path id="Path_129" data-name="Path 129" d="M14.75,34.1V38.24l11.578-6.7L70,55.7l.094-2.59L26.328,26.265Z" transform="translate(-3.926 -6.991)" fill="#ec6500"/>
    <path id="Path_130" data-name="Path 130" d="M14.75,45.419v4.14l11.578-5.552L70,63.207l.094-2.59L26.328,38.735Z" transform="translate(-3.926 -10.31)" fill="#ec6500"/>
    <path id="Path_131" data-name="Path 131" d="M14.75,57.226v4.14L26.328,57.6,70,72.147l.094-2.591L26.328,52.331Z" transform="translate(-3.926 -13.929)" fill="#ec6500"/>
    <path id="Path_132" data-name="Path 132" d="M0,71.437v4.142l22.4-4.895,43.673,9.65.094-2.591L22.4,65.413Z" transform="translate(0 -17.411)" fill="#ec6500"/>
    <path id="Path_133" data-name="Path 133" d="M0,82.713v4.142l22.59-2.447,43.485,4.473.094-2.591L22.59,79.137Z" transform="translate(0 -21.064)" fill="#ec6500"/>
    <path id="Path_134" data-name="Path 134" d="M0,93.453V97.6l66.075-.565.094-2.592L22.59,91.194Z" transform="translate(0 -24.273)" fill="#ec6500"/>
  </g>
</svg>
