<svg xmlns="http://www.w3.org/2000/svg" width="210" height="49.128" viewBox="0 0 210 49.128">
  <g id="Group_5" data-name="Group 5" transform="translate(322.605 -361.264)">
    <path id="Path_2" data-name="Path 2" d="M-133.155,382.124a7.812,7.812,0,0,1,7.782,7.835,7.828,7.828,0,0,1-7.782,7.863,7.817,7.817,0,0,1-7.767-7.863,7.818,7.818,0,0,1,7.767-7.835Zm7.686-10.306a22.329,22.329,0,0,0-7.7-1.523,19.456,19.456,0,0,0-19.309,19.54,19.443,19.443,0,0,0,19.309,19.6,19.478,19.478,0,0,0,19.375-19.487l.014-29.6h-11.691v11.473Zm-88.8,10.222a7.8,7.8,0,0,0-7.752,7.822,7.8,7.8,0,0,0,7.752,7.865,7.828,7.828,0,0,0,7.781-7.865,7.837,7.837,0,0,0-7.781-7.822Zm-7.671-10.194a22.274,22.274,0,0,1,7.713-1.509,19.443,19.443,0,0,1,19.307,19.526,19.464,19.464,0,0,1-19.307,19.611,19.519,19.519,0,0,1-19.392-19.5v-29.6h11.679v11.473Zm-70.192,33.084-6.025-10.373a7.831,7.831,0,0,1-6.327,3.279,7.8,7.8,0,0,1-7.767-7.85,7.81,7.81,0,0,1,7.767-7.836c3.089,0,5.655,1.771,6.339,3.2l5.807-10.689a19.063,19.063,0,0,0-12.118-4.31,19.428,19.428,0,0,0-19.322,19.513,19.453,19.453,0,0,0,19.322,19.6,19.218,19.218,0,0,0,12.351-4.528Zm20.021-22.78a7.82,7.82,0,0,0-7.767,7.836,7.8,7.8,0,0,0,7.767,7.85,7.8,7.8,0,0,0,7.741-7.85,7.8,7.8,0,0,0-7.741-7.836Zm19.364,27.171h-11.13v-1.4a28.6,28.6,0,0,1-8.288,1.552,19.513,19.513,0,0,1-19.377-19.611,19.483,19.483,0,0,1,19.377-19.513,19.575,19.575,0,0,1,19.4,19.582l.014,19.39Zm3.883,0V360.373h11.131v48.949Zm58.144-38.821h11.665v19.4c0,8.728,11.965,9,11.965,0V370.5H-155.4v21.942c-3.363,20.817-31.164,20.817-35.323,0V370.5Z" transform="translate(1.173 0.919)" fill="#ec6500" fill-rule="evenodd"/>
  </g>
</svg>
