<?xml version="1.0" encoding="UTF-8"?>
<svg xmlns="http://www.w3.org/2000/svg" version="1.1" viewBox="0 0 2500 2500">
  <defs>
    <style>
      .cls-1 {
        fill: #f60;
      }
    </style>
  </defs>
  <!-- Generator: Adobe Illustrator 28.7.1, SVG Export Plug-In . SVG Version: 1.2.0 Build 142)  -->
  <g>
    <g>
      <path class="cls-1" d="M1914.9,1553.7c-6-61.9-20.4-128-42.8-196.4-9.7-29.8-18.9-58.2-27.8-85.8-22.7-70.4-42.3-131.1-59.4-177.4-20.7-56-35.2-84.2-50-97-30.7-26.7-74.5-33-123.3-17.7-17.7,5.5-37,19.6-59,42.9-9.4-15.7-22.9-29.2-39.1-38.8-27.1-16-59.8-19.2-91.9-9.2-31.9,10-56.2,29.3-72.8,46.7-15-27.1-35.7-44-61.8-50.3-26.3-6.4-51.9,0-68.9,5.3-26.7,8.3-45.6,18.8-59.1,29.5-24.8-79.4-49.2-156.5-65.3-205l-.9-2.7-1.5-2.4c-21.8-35.7-47-59.9-75-72.1-26.9-11.7-54.9-11.6-80.9.1-27.6,12.5-50.8,38.1-63.6,70.2-13.1,32.9-14.5,69.8-3.8,103.8l184.5,589.6c-6.5-5.7-13.4-11.5-20.4-17.3-28.3-23.7-53.7-43.2-75.5-57.9-29.6-20-52.7-31.2-70.8-34.5-21.2-3.8-45,.5-66.8,12.1-21.8,11.6-40,29.8-51,51-12.5,24-15.8,51-9.6,78.3,6.8,29.8,24.6,59.3,53,87.5,14.6,14.5,31.3,31.6,50.6,51.3,59.2,60.5,140.3,143.4,222.8,214.1,99.9,85.7,180.4,135.5,246.2,152.5,26.4,6.8,54.2,9.7,82.2,9.7,73.3,0,148.2-19.6,204.8-39.1,94.9-32.8,173.3-77.3,205.9-104.9,42.4-35.8,74.3-102,87.3-181.6,7.8-47.5,9-99.4,3.6-154.5ZM1862.1,1700.1c-16.3,99.4-57.9,141.2-70.3,151.6-30.2,25.4-105.2,66.5-190.1,95.9-71.8,24.8-174.8,49.8-258.3,28.3-134-34.5-329.2-234-445.8-353.2-19.4-19.9-36.2-37-51.1-51.8-38.4-38.1-50.6-76.3-34.3-107.5,13.9-26.7,44.8-40.8,64.9-37.2,9.9,1.8,41.5,13.2,122.9,81.3,46.5,38.9,86,77.1,86.4,77.5l70.2,67.9-241.1-770.4c-7.2-23.1-6.3-48.2,2.6-70.5,8.1-20.3,21.9-36,38-43.3,29.7-13.5,63,4.8,91.4,50.2,45.7,138.2,155.2,496.2,156.4,499.8l47.6-14.5c-.6-2.1-35.9-117.4-74.8-242.3,1.8-5.9,11-24.2,56.4-38.4,34.3-10.7,59.1-9.4,76.5,30.3,25.9,58.9,73.3,234.5,73.8,236.3l48-12.9c-1.7-6.1-34.5-127.5-61.2-204,9.4-13.3,32.1-40.7,66.2-51.4,42-13.1,71.2,13.8,78.5,37.1l64.2,205.2,47.5-14.9-54.5-174.1c16.1-19.9,39.6-43.8,54.3-48.4,22.4-7,53.8-11.4,75.8,7.8.5.4,5,4.6,13.6,22.3,6.4,13.2,13.8,31.1,22.4,54.5,16.7,45.3,36.2,105.6,58.7,175.4,8.9,27.6,18.1,56.1,27.9,86,39.6,121.2,52.6,234.5,37.3,327.4Z"/>
      <path class="cls-1" d="M768.2,675.3l-73-5.8c38.5-38.8,104.3-93.4,189.1-120.3,139.1-44.1,237.8-8.6,238.7-8.2l21.2-57c-4.8-1.8-119.5-43.1-278.3,7.2-96.3,30.5-169.5,90.6-213,134.3l-10.8-74.5-60.2,8.7,23.6,163.7,157.8,12.6,4.8-60.6Z"/>
    </g>
  </g>
</svg>